<svg width="273" height="121" viewBox="0 0 273 121" fill="none" xmlns="http://www.w3.org/2000/svg"><path d="M148.511 63.091V60.07H85.709l8.354 11.522c11.811-7.203 23.622-8.5 31.69-8.5h6.483c-1.586 30.972-15.701 50.416-39.47 50.416-26.504 0-39.9-25.062-39.9-56.03 0-30.108 12.243-54.452 34.426-54.452 16.564 0 24.922 15.847 28.233 35.294l22.761-6.34C128.346 12.965 111.924 0 87.292 0 53.872 0 26.65 22.472 26.65 59.059S50.42 121 85.277 121c27.08 0 41.341-15.558 46.959-39.758v4.896c0 10.804-.433 20.312-1.875 31.98h8.357c-1.443-11.668-1.875-21.176-1.875-31.98V63.092zM251.354 2.882H147.069l8.354 11.668c11.954-7.346 21.75-8.643 29.815-8.643h1.875v81.385c0 13.397-.432 19.879-1.586 30.826h27.369c-1.154-10.947-1.586-17.429-1.586-30.826V5.907h1.875c8.065 0 18.004 1.297 29.816 8.643z" fill="#FFF5EE"/><mask id="a" style="mask-type:luminance" maskUnits="userSpaceOnUse" x="0" y="42" width="273" height="33"><path d="M0 42.279h272.251v32.713H0z" fill="#fff"/></mask><g mask="url(#a)"><path d="M0 42.279h272.2V76.04H0z" fill="#000"/></g><path d="M49.525 58.52h1.03v2.606a4.4 4.4 0 0 1-1.284.661 4.4 4.4 0 0 1-1.449.254q-1.564 0-2.644-1.03-1.067-1.039-1.067-2.541 0-1.511 1.08-2.53 1.092-1.03 2.695-1.03.748 0 1.461.268.725.267 1.259.712l-.674.877a2.94 2.94 0 0 0-2.046-.801q-1.083 0-1.83.724a2.38 2.38 0 0 0-.738 1.767q-.001 1.069.75 1.792.75.725 1.83.725.811 0 1.627-.483zm15.264 3.47-1.284-2.135a3 3 0 0 1-.33.013H61.51v2.123h-1.195v-7.054h2.86q1.344 0 2.097.635.75.623.75 1.767 0 .854-.382 1.436a2.18 2.18 0 0 1-1.08.852l1.576 2.364zm-3.28-3.19h1.666q1.715.001 1.715-1.423 0-1.373-1.715-1.373H61.51zm19.196-2.796h-3.838v1.907h3.444v1.067h-3.445v1.945h3.966v1.068h-5.16v-7.054h5.033zm14.682 0H91.55v1.907h3.444v1.067H91.55v1.945h3.965v1.068h-5.16v-7.054h5.033zm15.763 5.986h-1.17l-3.749-5.058v5.059h-1.195v-7.054h1.169l3.775 5.071v-5.071h1.17zm25.427-5.986h-2.237v5.987h-1.195v-5.987h-2.224v-1.067h5.656zm15.203 5.986h-1.182v-2.923h-3.737v2.924h-1.195v-7.054h1.195V58h3.737v-3.063h1.182zm14.402 0-1.283-2.135q-.103.014-.331.013h-1.665v2.123h-1.195v-7.054h2.86q1.344 0 2.097.635.75.623.75 1.767 0 .854-.381 1.436-.382.585-1.08.852l1.576 2.364zm-3.279-3.19h1.665q1.716.001 1.716-1.423 0-1.373-1.716-1.373h-1.665zm19.196-2.796h-3.839v1.907h3.445v1.067h-3.445v1.945h3.966v1.068h-5.161v-7.054h5.034zm14.199 4.398h-3.559l-.674 1.589h-1.233l3.114-7.054h1.221l3.076 7.054h-1.259zm-.445-1.068-1.335-3.126-1.334 3.126zm11.403-4.397h2.898c1.048 0 1.919.336 2.605 1.004.693.66 1.043 1.506 1.043 2.529q-.002 1.527-1.043 2.53-1.042.99-2.643.99h-2.86zm1.195 1.067v4.92h1.728q1.04 0 1.729-.687.686-.698.686-1.767 0-1.067-.712-1.767-.714-.698-1.754-.699zm16.999-1.118q1.372 0 2.479.724l-.496 1.055q-1.081-.66-2.072-.661-.534 0-.839.19a.61.61 0 0 0-.305.547.75.75 0 0 0 .28.598q.277.244.699.368.43.115.928.293.495.167.915.368.42.19.699.61t.28 1.017q0 .93-.75 1.487-.739.548-1.92.547a4.17 4.17 0 0 1-2.872-1.119l.508-1.03q.532.496 1.17.763.648.267 1.22.267.621 0 .966-.229.354-.228.356-.622a.76.76 0 0 0-.293-.61 1.7 1.7 0 0 0-.699-.37 17 17 0 0 1-.915-.279 11 11 0 0 1-.915-.343 1.75 1.75 0 0 1-.712-.597q-.28-.42-.279-1.004 0-.901.699-1.437.71-.534 1.868-.533" fill="#FFF5EE"/></svg>