<svg width="176" height="135" viewBox="0 0 176 135" fill="none" xmlns="http://www.w3.org/2000/svg"><path d="M138.094 72.47a38.95 38.95 0 0 0 12.352-27.12 38.937 38.937 0 0 0-65.475-29.82 38.944 38.944 0 0 0-7.292 47.7l-7.922 7.39 1.894 13.152-12.294-3.446-9.913 9.247 1.894 13.149-12.294-3.445-8.52 7.948 1.152 8.015-7.492-2.1-4.958 4.627-.742 12.179 18.164 4.57 58.938-54.985a38.95 38.95 0 0 0 42.508-7.061m-5.757-47.88a11.163 11.163 0 0 1-.547 15.786 11.169 11.169 0 1 1 .546-15.785z" fill="#000"/><path d="M132.338 24.59c-.07.074-.729-.68-2.219-1.6a11.15 11.15 0 0 0-7.028-1.542 10.85 10.85 0 0 0-8.458 5.888 10.81 10.81 0 0 0 1.726 12.158 10.81 10.81 0 0 0 12.012 2.568 10.85 10.85 0 0 0 6.459-8.031 11.14 11.14 0 0 0-1.053-7.12c-.81-1.548-1.517-2.258-1.439-2.323.026-.023.207.142.535.482.477.5.892 1.057 1.235 1.658a11.12 11.12 0 0 1 1.4 7.418 11.48 11.48 0 0 1-6.786 8.739 11.44 11.44 0 0 1-6.713.754 11.65 11.65 0 0 1-6.36-3.482 11.65 11.65 0 0 1-3.03-6.585 11.45 11.45 0 0 1 1.216-6.643 11.5 11.5 0 0 1 9.189-6.165 11.1 11.1 0 0 1 7.3 1.91 8.5 8.5 0 0 1 1.569 1.347c.317.354.471.548.445.57" fill="#000"/><path d="M138.095 72.47s-.18.192-.561.54l-1.714 1.528a40.8 40.8 0 0 1-7.536 4.79 39.5 39.5 0 0 1-13.836 3.718A39.7 39.7 0 0 1 95.467 79.8l.32-.053-58.84 55.09-.174.163-.231-.058-18.17-4.554-.365-.092.023-.378.733-12.179.01-.184.137-.126 4.955-4.63.192-.18.256.071c2.334.652 4.9 1.371 7.492 2.1l-.6.522-1.158-8.013-.036-.247.183-.17 8.516-7.952.2-.184.26.073 12.294 3.443-.61.535-1.894-13.15-.036-.251.184-.173 9.913-9.252.2-.186.264.074q6.2 1.737 12.292 3.448l-.608.534q-.956-6.642-1.89-13.151l-.035-.247.183-.171 7.926-7.387-.09.582a39.7 39.7 0 0 1-5.061-17.727 37.8 37.8 0 0 1 .645-9.01 38 38 0 0 1 2.592-8.466 39.46 39.46 0 0 1 24.2-21.735 39.43 39.43 0 0 1 29.146 2.2 39.48 39.48 0 0 1 17.922 17.9 39.1 39.1 0 0 1 3.829 20.435 38.5 38.5 0 0 1-4.368 14.99l-.724 1.388-.8 1.234c-.529.788-.97 1.562-1.477 2.21-1.051 1.266-1.858 2.4-2.652 3.195l-1.8 1.8c-.407.4-.629.589-.629.589s.183-.231.569-.65l1.734-1.85c.77-.807 1.551-1.955 2.573-3.228.493-.652.919-1.428 1.434-2.217l.776-1.234.7-1.384a38.5 38.5 0 0 0 4.184-14.876 38.76 38.76 0 0 0-3.9-20.126 38.9 38.9 0 0 0-17.687-17.518 38.7 38.7 0 0 0-28.57-2.072 38.63 38.63 0 0 0-23.628 21.3 37.4 37.4 0 0 0-2.518 8.278 36.8 36.8 0 0 0-.618 8.8 38.8 38.8 0 0 0 4.96 17.3l.183.33-.272.254q-3.92 3.658-7.92 7.394l.148-.42 1.9 13.15.105.734-.715-.2-12.294-3.443.46-.113-7.283 6.8c-.9.839-1.8 1.677-2.626 2.452l.149-.425c.648 4.507 1.292 8.982 1.89 13.151l.108.736-.716-.2-12.294-3.45.459-.11-8.522 7.946.145-.417c.4 2.765.79 5.511 1.15 8.015l.1.72-.7-.2c-2.587-.726-5.157-1.447-7.491-2.1l.446-.108-4.961 4.623.147-.312-.752 12.179-.343-.471 18.159 4.59-.406.1 59.036-54.88.142-.133.178.079a39.4 39.4 0 0 0 18.709 3.327 39.6 39.6 0 0 0 13.735-3.548 43 43 0 0 0 7.57-4.63c.757-.631 1.339-1.114 1.761-1.464.398-.328.615-.478.615-.478" fill="#000"/><path d="M136.79 68.05a38.93 38.93 0 0 0 12.352-27.12 38.937 38.937 0 0 0-65.475-29.818 38.944 38.944 0 0 0-7.292 47.7l-.01.01-7.911 7.38 1.892 13.15-12.294-3.445-9.912 9.247 1.892 13.15-12.294-3.445-8.521 7.948 1.155 8.015-7.492-2.1-4.96 4.627-.742 12.179 18.164 4.572L94.28 75.113a38.945 38.945 0 0 0 42.51-7.062m-5.756-47.878a11.167 11.167 0 0 1-.548 15.787 11.17 11.17 0 0 1-17.785-12.796 11.17 11.17 0 0 1 18.333-2.991" fill="#000"/><path d="M131.035 20.17c-.071.074-.731-.678-2.219-1.6a11.13 11.13 0 0 0-7.03-1.542 10.85 10.85 0 0 0-8.458 5.888 10.8 10.8 0 0 0-1.032 6.347 10.8 10.8 0 0 0 2.759 5.809 10.8 10.8 0 0 0 12.011 2.568 10.85 10.85 0 0 0 6.461-8.031 11.15 11.15 0 0 0-1.054-7.12c-.81-1.548-1.517-2.257-1.438-2.323.024-.023.205.142.534.484.477.5.891 1.057 1.235 1.658a11.12 11.12 0 0 1 1.4 7.416 11.48 11.48 0 0 1-6.787 8.739 11.44 11.44 0 0 1-6.713.754 11.64 11.64 0 0 1-6.36-3.482 11.63 11.63 0 0 1-3.031-6.585 11.4 11.4 0 0 1 1.218-6.642 11.48 11.48 0 0 1 9.187-6.166 11.13 11.13 0 0 1 7.3 1.91 8.8 8.8 0 0 1 1.569 1.347c.32.356.472.55.448.572" fill="#000"/><path d="M136.79 68.05s-.18.193-.56.54c-.411.365-.977.872-1.716 1.528a40.7 40.7 0 0 1-7.534 4.79 39.5 39.5 0 0 1-13.836 3.719 39.74 39.74 0 0 1-18.982-3.247l.32-.053-58.839 55.092-.173.162-.233-.058-18.166-4.555-.365-.092.023-.377.733-12.179.011-.186.136-.126c1.538-1.438 3.241-3.027 4.957-4.63l.192-.18.254.071 7.492 2.1-.6.522-1.158-8.013-.036-.246.183-.171 8.518-7.952.2-.184.26.073 12.3 3.443-.61.535-1.895-13.15-.036-.25.186-.175 2.626-2.45q3.665-3.418 7.285-6.8l.2-.188.264.074 12.294 3.448-.61.534q-.953-6.642-1.889-13.15l-.036-.248.183-.171q4-3.731 7.926-7.387l-.089.584a39.7 39.7 0 0 1-5.062-17.73 37.7 37.7 0 0 1 .645-9.007 38.3 38.3 0 0 1 2.592-8.47 39.46 39.46 0 0 1 24.2-21.734 39.45 39.45 0 0 1 29.146 2.2 39.5 39.5 0 0 1 17.923 17.9 39.1 39.1 0 0 1 3.828 20.435 38.5 38.5 0 0 1-4.368 14.993l-.724 1.386-.8 1.235c-.529.788-.97 1.56-1.476 2.209-1.051 1.266-1.858 2.4-2.651 3.194-.775.775-1.371 1.368-1.8 1.8-.408.4-.631.589-.631.589s.183-.23.569-.65l1.734-1.848c.77-.807 1.551-1.957 2.575-3.23.492-.651.919-1.427 1.433-2.215l.778-1.236.7-1.384a38.5 38.5 0 0 0 4.184-14.876 38.74 38.74 0 0 0-3.9-20.126 38.9 38.9 0 0 0-17.694-17.516 38.72 38.72 0 0 0-28.575-2.07 38.63 38.63 0 0 0-23.628 21.306 37.4 37.4 0 0 0-2.518 8.277 37 37 0 0 0-.618 8.8 38.8 38.8 0 0 0 4.96 17.3l.183.328-.272.254-7.919 7.394.147-.42 1.9 13.15.105.736-.715-.2-12.294-3.445.463-.112-7.285 6.8c-.9.84-1.8 1.679-2.626 2.452l.15-.424 1.89 13.149.106.737-.716-.2-12.292-3.448.458-.112-8.522 7.945.147-.417c.4 2.765.79 5.511 1.148 8.015l.1.72-.7-.2-7.49-2.1.445-.11-4.96 4.623.146-.311-.752 12.177-.343-.469 18.16 4.588-.4.105 59.034-54.882.144-.133.178.079a39.4 39.4 0 0 0 18.707 3.326 39.6 39.6 0 0 0 13.735-3.546 43 43 0 0 0 7.57-4.632l1.761-1.464c.388-.33.607-.481.607-.481" fill="#000"/><path d="M133.214 65.009a53 53 0 0 0 5.23-6.6 32.7 32.7 0 0 0 4-8.962 34 34 0 0 0 1.113-12.892 33.7 33.7 0 0 0-5.133-14.737A34 34 0 0 0 125.2 9.845a31.7 31.7 0 0 0-9.2-3.108 38 38 0 0 0-5-.577 38 38 0 0 0-5.125.254 33.96 33.96 0 0 0-19.087 8.82 33.96 33.96 0 0 0-10.127 18.439 38 38 0 0 0-.608 5.1c-.035 1.68.04 3.36.228 5.029a31.8 31.8 0 0 0 2.465 9.4 34 34 0 0 0 11.03 14.022 33.74 33.74 0 0 0 14.346 6.142c4.287.756 8.679.682 12.937-.218a32.8 32.8 0 0 0 9.218-3.372 53 53 0 0 0 6.941-4.759c.013.013-.12.146-.391.395-.314.283-.716.642-1.218 1.09a16 16 0 0 1-2.089 1.646 24.4 24.4 0 0 1-3.058 1.96 32.4 32.4 0 0 1-9.287 3.572 34.2 34.2 0 0 1-13.167.364 34.3 34.3 0 0 1-14.71-6.171 34.7 34.7 0 0 1-11.376-14.32 32.5 32.5 0 0 1-2.562-9.646 39 39 0 0 1-.247-5.167c.087-1.759.291-3.51.613-5.24a34.83 34.83 0 0 1 10.4-18.968 34.83 34.83 0 0 1 19.635-9.058 39 39 0 0 1 5.269-.249c1.724.086 3.44.286 5.136.6a32.6 32.6 0 0 1 9.444 3.223 34.7 34.7 0 0 1 13.5 12.339 34.26 34.26 0 0 1 5.136 15.1 34.2 34.2 0 0 1-1.274 13.112 32.4 32.4 0 0 1-4.211 9.023q-.974 1.54-2.169 2.917a15.7 15.7 0 0 1-1.785 1.97l-1.172 1.14a2.2 2.2 0 0 1-.421.36" fill="#000"/><path d="M131.632 37.384c-.078-.074.813-.839 1.9-2.583a13.07 13.07 0 0 0 1.84-8.265 12.74 12.74 0 0 0-1.96-5.518 12.8 12.8 0 0 0-4.968-4.46 12.5 12.5 0 0 0-7.224-1.266 12.7 12.7 0 0 0-7.12 3.3 12.7 12.7 0 0 0-3.786 6.876 12.5 12.5 0 0 0 .762 7.3 12.8 12.8 0 0 0 4.106 5.265 12.7 12.7 0 0 0 5.369 2.337c2.853.52 5.799.075 8.372-1.265 1.816-.962 2.639-1.8 2.709-1.716.023.024-.175.234-.577.615a10.3 10.3 0 0 1-1.949 1.433 13.03 13.03 0 0 1-8.67 1.611 13.25 13.25 0 0 1-5.733-2.366 13.5 13.5 0 0 1-4.452-5.563 13.33 13.33 0 0 1-.873-7.824 13.58 13.58 0 0 1 4.058-7.411 13.6 13.6 0 0 1 7.673-3.532 13.35 13.35 0 0 1 7.743 1.413 13.5 13.5 0 0 1 5.241 4.827 13.3 13.3 0 0 1 1.963 5.882 13.04 13.04 0 0 1-2.207 8.539 10.3 10.3 0 0 1-1.564 1.845c-.407.367-.63.55-.653.526M30.584 127.94c-.184-.2 13.088-12.876 29.639-28.317 16.55-15.441 30.123-27.806 30.306-27.61s-13.086 12.873-29.643 28.32-30.118 27.805-30.302 27.607m7.317-77.171.537-1.2.723 1.1a5.5 5.5 0 0 0 2.361 2.012l1.2.538-1.1.72a5.5 5.5 0 0 0-2.012 2.362l-.537 1.2-.723-1.1a5.5 5.5 0 0 0-2.36-2.01l-1.2-.54 1.1-.72a5.53 5.53 0 0 0 2.011-2.362M1.808 41.774l.312-.7.419.64c.336.512.812.918 1.371 1.168l.7.312-.639.419a3.2 3.2 0 0 0-1.168 1.371l-.312.7-.419-.64a3.2 3.2 0 0 0-1.371-1.168l-.7-.312.64-.419a3.2 3.2 0 0 0 1.167-1.371m113.645 61.51.313-.7.419.64c.336.512.811.918 1.371 1.168l.699.312-.639.419a3.2 3.2 0 0 0-1.168 1.371l-.311.7-.42-.64a3.2 3.2 0 0 0-1.371-1.168l-.7-.312.64-.419a3.2 3.2 0 0 0 1.167-1.371" fill="#000"/><path d="m171.096 71.745.539-1.2.721 1.1a5.53 5.53 0 0 0 2.361 2.012l1.2.537-1.1.723a5.5 5.5 0 0 0-2.01 2.36l-.539 1.2-.721-1.1a5.53 5.53 0 0 0-2.361-2.011l-1.2-.537 1.1-.723a5.5 5.5 0 0 0 2.01-2.361" fill="#F2EBFB"/><path d="m163.848 27.563.9-2.02 1.213 1.85a9.27 9.27 0 0 0 3.967 3.38l2.02.9-1.85 1.213a9.27 9.27 0 0 0-3.38 3.967l-.9 2.02-1.213-1.852a9.27 9.27 0 0 0-3.967-3.378l-2.02-.9 1.852-1.213a9.27 9.27 0 0 0 3.378-3.967" fill="#000"/><path d="m26.685 13.94.9-2.02 1.213 1.85a9.27 9.27 0 0 0 3.967 3.38l2.02.9-1.85 1.213a9.3 9.3 0 0 0-3.38 3.967l-.9 2.02-1.213-1.85a9.26 9.26 0 0 0-3.967-3.378l-2.02-.9 1.852-1.213a9.3 9.3 0 0 0 3.378-3.97" fill="#F2EBFB"/></svg>